<?xml version="1.0" ?><svg viewBox="0 0 64 64" xmlns="http://www.w3.org/2000/svg">
<defs>
  <style>
    .cls-1{fill:#ed7a85;}.cls-2{fill:#265060;}
  </style>
</defs>
<title/>
<g id="Badge">
  <circle class="cls-1" cx="32" cy="32" r="32"/>
  <path class="cls-2" d="M28.11279,24.99414l-.292,3.24121a.85285.85285,0,0,0,1.186.8623L32,27.81836l2.99268,1.2793a.854.854,0,0,0,1.18652-.8623l-.292-3.24121L38.0293,22.542a.85378.85378,0,0,0-.45361-1.39355l-3.17285-.72461L32.7334,17.62988a.88317.88317,0,0,0-1.4668,0l-1.66943,2.79395-3.17285.72461a.85406.85406,0,0,0-.45312,1.39453Zm1.76807-3.60937a.86005.86005,0,0,0,.543-.39453L32,18.35254l1.57666,2.6377a.85784.85784,0,0,0,.54248.39453l2.99609.68457-2.02148,2.31348a.8616.8616,0,0,0-.208.63867l.27539,3.06055-2.8252-1.208a.85283.85283,0,0,0-.67139,0l-2.82568,1.208.27539-3.0625a.85967.85967,0,0,0-.208-.63672l-2.02148-2.31348Z"/>
<path class="cls-2" d="M32,33.81445A10.78564,10.78564,0,1,0,21.21436,23.0293,10.79739,10.79739,0,0,0,32,33.81445Zm0-19.57129a8.78564,8.78564,0,1,1-8.78564,8.78613A8.79593,8.79593,0,0,1,32,14.24316Z"/><path class="cls-2" d="M51.23779,52.53906,43.0174,33.684a3.79143,3.79143,0,0,0,1.8952-1.27191,4.97433,4.97433,0,0,0,.60693-3.23242,5.48971,5.48971,0,0,1,.09375-1.72754,5.26717,5.26717,0,0,1,.90381-1.37793,5.03621,5.03621,0,0,0,1.44385-3.04492,5.03622,5.03622,0,0,0-1.44385-3.0459,5.2831,5.2831,0,0,1-.90381-1.37793A5.47674,5.47674,0,0,1,45.52,16.87793a4.97039,4.97039,0,0,0-.60693-3.23145,4.9927,4.9927,0,0,0-2.90723-1.584,5.42186,5.42186,0,0,1-1.59375-.61133,5.362,5.362,0,0,1-1.05469-1.31055A5.00857,5.00857,0,0,0,36.93359,7.8457a4.92615,4.92615,0,0,0-3.22559.4209A5.55039,5.55039,0,0,1,32,8.71875a5.55039,5.55039,0,0,1-1.708-.45215,4.94394,4.94394,0,0,0-3.2251-.4209,5.009,5.009,0,0,0-2.42383,2.29395,5.35042,5.35042,0,0,1-1.05469,1.31152,5.42541,5.42541,0,0,1-1.59424.61133,4.99687,4.99687,0,0,0-2.90674,1.583,4.97433,4.97433,0,0,0-.60693,3.23242,5.48971,5.48971,0,0,1-.09375,1.72754,5.2831,5.2831,0,0,1-.90381,1.37793,5.03622,5.03622,0,0,0-1.44385,3.0459,5.03621,5.03621,0,0,0,1.44385,3.04492,5.26717,5.26717,0,0,1,.90381,1.37793A5.47674,5.47674,0,0,1,18.48,29.17969a4.97039,4.97039,0,0,0,.60693,3.23145,3.78916,3.78916,0,0,0,1.89563,1.27295l-8.22034,18.855a.99983.99983,0,0,0,1.52441,1.19336l7.44531-5.70117,1.02539,8.95117a1.001,1.001,0,0,0,.8457.875,1.08973,1.08973,0,0,0,.14844.01074.99923.99923,0,0,0,.916-.60059L32,40.44958l7.33252,16.818a.99923.99923,0,0,0,.916.60059,1.08973,1.08973,0,0,0,.14844-.01074,1.001,1.001,0,0,0,.8457-.875l1.02539-8.95117,7.44531,5.70117a.99983.99983,0,0,0,1.52441-1.19336ZM38.20319,37.40814A9.03381,9.03381,0,0,0,39.35693,35.918a5.35042,5.35042,0,0,1,1.05469-1.31152,2.76465,2.76465,0,0,1,.68158-.3327l6.76617,15.5202L42.083,45.37109a.99851.99851,0,0,0-.49475-.19781ZM20.47852,29.25781a6.91309,6.91309,0,0,0-.18945-2.42285,6.65769,6.65769,0,0,0-1.24121-2.00586,3.6869,3.6869,0,0,1-1.00879-1.7998,3.68659,3.68659,0,0,1,1.00928-1.80078,6.66591,6.66591,0,0,0,1.24072-2.00586A6.91149,6.91149,0,0,0,20.479,16.7998a3.67439,3.67439,0,0,1,.22559-1.97754,3.68127,3.68127,0,0,1,1.82861-.834,6.84053,6.84053,0,0,0,2.23193-.91992,6.77188,6.77188,0,0,0,1.54541-1.82324c.436-.6582.88672-1.33887,1.374-1.49707a3.656,3.656,0,0,1,1.915.39551A7.01576,7.01576,0,0,0,32,10.71875a7.01576,7.01576,0,0,0,2.40039-.5752A3.64069,3.64069,0,0,1,36.31592,9.748c.4873.1582.938.83887,1.37451,1.49707a6.76139,6.76139,0,0,0,1.54492,1.82324,6.83543,6.83543,0,0,0,2.231.91992,3.67682,3.67682,0,0,1,1.82959.835,3.67538,3.67538,0,0,1,.22559,1.97656,6.91309,6.91309,0,0,0,.18945,2.42285,6.66591,6.66591,0,0,0,1.24072,2.00586,3.68659,3.68659,0,0,1,1.00928,1.80078,3.6869,3.6869,0,0,1-1.00879,1.7998A6.65769,6.65769,0,0,0,43.71094,26.835a6.91149,6.91149,0,0,0-.18994,2.42285,3.67439,3.67439,0,0,1-.22559,1.97754,3.68127,3.68127,0,0,1-1.82861.834,6.84053,6.84053,0,0,0-2.23193.91992,6.77188,6.77188,0,0,0-1.54541,1.82324c-.436.6582-.88672,1.33887-1.374,1.49707a3.62948,3.62948,0,0,1-1.915-.39551A7.01576,7.01576,0,0,0,32,35.33887a7.01576,7.01576,0,0,0-2.40039.5752,3.63987,3.63987,0,0,1-1.91553.39551c-.4873-.1582-.938-.83887-1.37451-1.49707a6.76139,6.76139,0,0,0-1.54492-1.82324,6.83543,6.83543,0,0,0-2.231-.91992,3.67682,3.67682,0,0,1-1.82959-.835A3.67538,3.67538,0,0,1,20.47852,29.25781Zm1.93323,15.91547a.99626.99626,0,0,0-.49475.19781l-5.77637,4.42285L22.90674,34.2738a2.76446,2.76446,0,0,1,.68115.33264A5.362,5.362,0,0,1,24.64258,35.917a9.01988,9.01988,0,0,0,1.15417,1.49127Zm1.90955,7.88531-.80273-7.00781a.99759.99759,0,0,0-.18939-.4787l3.29169-7.55035a2.88781,2.88781,0,0,0,.44556.19019A4.947,4.947,0,0,0,30.292,37.791c.16071-.05933.319-.11755.474-.17181l.14337.32886Zm15.35742,0L33.09064,37.94806l.14337-.32886c.155.05426.31329.11249.474.17181a6.87836,6.87836,0,0,0,2.32227.55957,2.79459,2.79459,0,0,0,1.34882-.329l3.29175,7.55054a.99759.99759,0,0,0-.18939.4787Z"/></g></svg>
